<?xml version="1.0" encoding="UTF-8" ?>
<!DOCTYPE svg PUBLIC "-//W3C//DTD SVG 1.1//EN" "http://www.w3.org/Graphics/SVG/1.1/DTD/svg11.dtd">
<svg width="512pt" height="512pt" viewBox="0 0 512 512" version="1.1" xmlns="http://www.w3.org/2000/svg">
<g id="#000000fe">
<path fill="#4ea354" opacity="1.00" d=" M 394.35 9.44 C 401.51 7.76 408.55 11.67 413.80 16.20 C 439.18 41.81 464.78 67.22 490.25 92.75 C 495.31 97.77 501.24 102.79 502.90 110.07 C 506.05 118.23 501.56 127.04 495.78 132.78 C 480.58 147.91 465.39 163.05 450.29 178.28 C 449.44 179.03 448.57 180.51 447.22 179.82 C 409.81 142.23 372.28 104.75 334.73 67.29 C 333.98 66.44 332.48 65.57 333.18 64.22 C 349.28 48.31 365.25 32.27 381.21 16.23 C 384.87 12.86 389.40 10.26 394.35 9.44 Z" />
<path fill="#4ea354" opacity="1.00" d=" M 314.26 83.23 C 314.89 83.48 316.16 83.96 316.79 84.20 C 354.37 121.98 392.12 159.59 429.79 197.27 C 429.80 197.65 429.81 198.40 429.82 198.78 C 342.37 286.03 255.07 373.43 167.75 460.81 C 167.37 460.81 166.60 460.82 166.22 460.82 C 128.81 423.22 91.27 385.75 53.73 348.29 C 52.98 347.44 51.48 346.57 52.18 345.22 C 139.64 257.99 226.89 170.55 314.26 83.23 Z" />
<path fill="#4ea354" opacity="1.00" d=" M 35.14 361.96 C 67.98 394.05 100.16 426.88 132.75 459.25 C 138.32 465.26 144.81 470.55 149.99 476.87 C 147.04 479.39 142.44 477.83 139.07 479.22 C 96.68 486.27 54.48 494.63 12.00 501.03 C 12.38 490.78 15.03 480.77 16.51 470.65 C 22.70 434.42 29.28 398.25 35.14 361.96 Z" />
</g>
</svg>
